<?xml version="1.0" encoding="utf-8"?><svg version="1.1" id="Layer_1" xmlns="http://www.w3.org/2000/svg" xmlns:xlink="http://www.w3.org/1999/xlink" x="0px" y="0px" viewBox="0 0 122.88 100.38" style="enable-background:new 0 0 122.88 100.38" xml:space="preserve"><g><path d="M72.66,4.25c10.76-0.88,5.26,9.97,16.6,7.76l-6.19,10.72c-10.94,2.32-6.45-9.04-16.58-7.8L72.66,4.25L72.66,4.25 L72.66,4.25z M61.39,24.72c0.67,0,1.33,0,2,0.01l-2-3.46l-2,3.46C60.06,24.72,60.72,24.72,61.39,24.72L61.39,24.72z M65.57,24.75 c14.93,0.25,28.4,1.83,38.41,4.25c11.33,2.74,18.44,6.79,18.78,11.53c0.07,0.19,0.11,0.4,0.11,0.61v44.79 c0,0.58-0.28,1.09-0.72,1.4c-8.73,7.42-24.5,11.21-41.86,12.51c-21.8,1.62-46.25-0.66-62.2-4.6c-4.58-1.13-8.48-2.4-11.46-3.77 c-3.07-1.41-5.23-2.98-6.24-4.66c-0.17-0.28-0.24-0.58-0.24-0.88H0.15V42.11C0.05,41.71,0,41.31,0,40.9 c0-4.89,7.18-9.08,18.8-11.89c10.01-2.42,23.47-4,38.41-4.25l3.1-5.36L51.09,3.43l0.07-0.04c-0.58-0.01-1.14-0.31-1.45-0.85 c-0.47-0.81-0.19-1.85,0.62-2.31h0c0.81-0.47,1.85-0.19,2.31,0.62c0.31,0.54,0.29,1.17,0.01,1.68l0.07-0.04l8.67,15.02l8.67-15.02 l0.07,0.04c-0.28-0.5-0.3-1.14,0.01-1.68c0.47-0.81,1.5-1.09,2.31-0.62c0.81,0.47,1.09,1.5,0.62,2.31 c-0.31,0.54-0.87,0.84-1.45,0.85l0.07,0.04l-9.22,15.96L65.57,24.75L65.57,24.75z M50.12,4.25c-10.75-0.88-5.26,9.97-16.6,7.76 l6.19,10.72c10.94,2.32,6.45-9.04,16.58-7.8L50.12,4.25L50.12,4.25z M61.39,40.9c2.19,0,4.34,0.03,6.44,0.08l7.14-12.42 c-4.36-0.25-8.9-0.38-13.58-0.38c-4.34,0-8.56,0.11-12.63,0.33l7.39,12.44C57.87,40.92,59.62,40.9,61.39,40.9L61.39,40.9z M71.72,41.1c6.55,0.26,12.53,0.77,17.55,1.46l12.91-10.44c-6.53-1.51-14.51-2.66-23.39-3.32L71.72,41.1L71.72,41.1z M93.85,43.29 c6.95,1.28,11.19,2.97,11.19,4.82c0,0.32-0.13,0.64-0.38,0.95c9.1-2.35,14.66-5.24,14.66-8.17c0-2.74-4.88-5.45-12.97-7.71 L93.85,43.29L93.85,43.29z M18.12,49.07c-0.25-0.31-0.38-0.63-0.38-0.95c0-1.96,4.74-3.74,12.44-5.04L17.34,32.94 C8.71,35.25,3.46,38.06,3.46,40.9c0,0.15,0.01,0.3,0.04,0.45c0.03,0.09,0.06,0.19,0.08,0.3C4.43,44.31,9.79,46.91,18.12,49.07 L18.12,49.07z M34.86,42.39c5.03-0.64,10.93-1.1,17.35-1.33l-7.31-12.32c-8.8,0.62-16.74,1.71-23.31,3.16l13.18,10.4 C34.79,42.33,34.83,42.36,34.86,42.39L34.86,42.39z M75.65,71.53c0.39,0.74,0.61,1.58,0.61,2.46v8.74 c9.08-0.56,17.86-1.79,25.67-3.79c6.7-1.72,12.67-4.01,17.49-6.96V61.27C108.33,67.39,92.38,70.56,75.65,71.53L75.65,71.53z M76.26,86.18v10.47c1.27-0.07,2.53-0.15,3.79-0.24h0.01c16.37-1.22,31.17-4.65,39.38-11.27v-9.17 c-4.76,2.63-10.42,4.71-16.64,6.31c-8.08,2.07-17.12,3.33-26.43,3.9C76.33,86.18,76.29,86.18,76.26,86.18L76.26,86.18z M64.02,96.93V85.05c0-1.12-0.91-2.03-2.03-2.03h0c-1.12,0-2.03,0.91-2.03,2.03v11.81C61.31,96.9,62.67,96.92,64.02,96.93 L64.02,96.93z M47.73,96.24V85.92c-0.04,0-0.09,0-0.13,0c-10.23-0.79-19.93-2.27-28.06-4.27C13.1,80.06,7.63,78.15,3.6,75.99v9.42 c0.76,0.95,2.3,1.94,4.47,2.94c2.77,1.27,6.47,2.47,10.85,3.56C26.85,93.86,36.92,95.4,47.73,96.24L47.73,96.24z M47.73,82.46 v-8.47c0-0.99,0.27-1.91,0.75-2.71c-18.7-1.36-35.66-5.06-44.87-9.99v10.71c3.78,2.4,9.62,4.54,16.76,6.29 C28.26,80.24,37.72,81.69,47.73,82.46L47.73,82.46z M3.6,57.32c10.28,6.54,35.21,11.09,60.49,11.09c21.14,0,42.39-3.2,55.33-11.12 V46.45c-3.19,2.51-8.54,4.67-15.44,6.34c-10.93,2.65-25.99,4.29-42.59,4.29c-16.6,0-31.66-1.64-42.59-4.29 c-6.73-1.63-11.98-3.72-15.2-6.15V57.32L3.6,57.32z"/></g></svg>